<?xml version="1.0" standalone="no"?>
<!DOCTYPE svg PUBLIC "-//W3C//DTD SVG 20010904//EN"
 "http://www.w3.org/TR/2001/REC-SVG-20010904/DTD/svg10.dtd">
<svg version="1.0" xmlns="http://www.w3.org/2000/svg"
 width="160.000000pt" height="160.000000pt" viewBox="0 0 160.000000 160.000000"
 preserveAspectRatio="xMidYMid meet">
<metadata>
Created by potrace 1.11, written by Peter Selinger 2001-2013
</metadata>
<g transform="translate(0.000000,160.000000) scale(0.100000,-0.100000)"
fill="#000000" stroke="none">
<path d="M405 1489 c-89 -33 -103 -42 -142 -89 -42 -51 -43 -54 -37 -104 4
-28 10 -55 14 -61 13 -17 34 -415 33 -645 0 -91 -5 -157 -16 -203 -23 -93 -23
-199 1 -219 22 -20 187 -66 277 -77 127 -17 277 -7 423 29 73 17 139 39 148
47 12 12 15 34 12 99 l-3 83 45 11 c62 16 172 75 212 114 64 62 98 234 95 476
-2 159 -3 167 -30 223 -40 80 -75 102 -218 131 -22 5 -27 12 -32 47 -7 50 -23
69 -66 74 -17 2 -46 14 -63 26 -17 12 -69 30 -117 40 -47 10 -95 22 -106 25
-11 4 -90 7 -175 8 l-156 2 -99 -37z m836 -395 c24 -7 29 -34 29 -164 0 -109
-21 -275 -40 -310 -9 -17 -109 -70 -133 -70 -12 0 -14 23 -10 138 2 75 5 166
7 202 2 36 5 90 6 120 1 30 4 49 7 43 8 -22 21 -14 33 21 11 33 13 35 48 30
20 -2 44 -7 53 -10z"/>
</g>
</svg>
